<?xml version="1.0" standalone="no"?>
<!DOCTYPE svg PUBLIC "-//W3C//DTD SVG 20010904//EN"
 "http://www.w3.org/TR/2001/REC-SVG-20010904/DTD/svg10.dtd">
<svg version="1.0" xmlns="http://www.w3.org/2000/svg"
 width="400.000000pt" height="400.000000pt" viewBox="0 0 400.000000 400.000000"
 preserveAspectRatio="xMidYMid meet">
<metadata>
Created by potrace 1.11, written by Peter Selinger 2001-2013
</metadata>
<g transform="translate(0.000000,400.000000) scale(0.100000,-0.100000)"
fill="#000000" stroke="none">
<path d="M1255 2546 c-168 -41 -256 -154 -242 -309 14 -150 99 -217 343 -267
148 -31 202 -60 230 -127 29 -68 11 -149 -45 -196 -94 -79 -300 -73 -470 13
l-62 31 3 -78 3 -78 80 -23 c179 -52 365 -53 483 -2 136 58 202 214 157 367
-36 122 -127 183 -338 227 -148 31 -199 55 -222 103 -21 44 -16 114 12 152 11
14 40 37 64 51 40 23 55 25 154 24 97 0 121 -4 198 -31 l87 -31 0 68 c0 68 0
68 -32 79 -115 37 -309 50 -403 27z"/>
<path d="M1960 2015 l0 -525 70 0 70 0 2 455 3 455 131 -353 132 -352 72 0 72
0 132 352 131 353 3 -455 2 -455 70 0 70 0 0 525 0 526 -107 -3 -108 -3 -129
-347 c-71 -192 -132 -348 -136 -348 -4 0 -65 156 -136 348 l-129 347 -108 3
-107 3 0 -526z"/>
</g>
</svg>
